<svg width="26" height="30" viewBox="0 0 26 30" fill="none" xmlns="http://www.w3.org/2000/svg">
<g clip-path="url(#clip0_20_3)">
<path d="M25.8 0.169783L25.7742 5.57802L21.2105 5.5475L15.8451 5.51126C15.3577 8.83149 14.0069 11.8882 11.9816 14.2541C9.96276 16.6276 7.36786 18.1932 4.56052 18.7314C3.04915 19.0189 1.50797 19.0067 0 18.6952L0.0273663 13.1629C1.52178 13.6269 3.09075 13.6374 4.58949 13.1934C6.17122 12.7224 7.61689 11.7558 8.77493 10.3949C9.93447 9.04221 10.7657 7.34488 11.1816 5.48073L4.62652 5.43686L0.0627815 5.40633L0.0885381 0L4.65066 0.0305227L11.2089 0.0724914L15.8773 0.103014L21.2491 0.13926L25.8 0.169783Z" fill="#969CED"/>
<path d="M21.1574 16.8677C19.9943 17.2133 18.9001 17.8274 17.9374 18.6748C16.9748 19.5222 16.1626 20.5862 15.5473 21.806C14.932 23.0257 14.5257 24.3773 14.3517 25.7834C14.1777 27.1894 14.2394 28.6223 14.5332 30L9.86481 29.9695C9.514 27.4147 9.68392 24.7974 10.3604 22.3362C11.0368 19.875 12.2002 17.6413 13.7535 15.8213C15.3067 14.0014 17.2047 12.6481 19.2891 11.8744C21.3735 11.1007 23.5839 10.9289 25.7357 11.3736L25.6729 24.6681L21.1092 24.6376L21.1574 16.8677Z" fill="#79EDC3"/>
</g>
<defs>
<clipPath id="clip0_20_3">
<rect width="25.8" height="30" fill="white"/>
</clipPath>
</defs>
</svg>
