<svg xmlns="http://www.w3.org/2000/svg" viewBox="0 0 1292.85 255.22"><defs><style>.cls-1{fill:#fff;}</style></defs><title>ameritrade</title><g id="Capa_2" data-name="Capa 2"><g id="Capa_1-2" data-name="Capa 1"><path class="cls-1" d="M142.9,255.12c-45.8,0-91.61-.07-137.42.1C1,255.24,0,254,0,249.61Q.2,127.47,0,5.33C0,1.19,1.06,0,5.25,0Q142.92.18,280.6,0c4,0,4.93,1.23,4.92,5.06q-.16,122.4,0,244.79c0,4.71-1.59,5.36-5.7,5.35C234.19,255.07,188.55,255.12,142.9,255.12Zm-24-203.69c-24.16,0-48.31,0-72.47,0-5.13,0-11.82-2.2-15,.88-3.43,3.33-.61,10.14-1.18,15.38-.41,3.79,1.07,4.88,4.77,4.81,12.33-.2,24.66-.09,37-.09,6.68,0,6.69,0,6.69,6.81,0,38.47,0,76.94-.07,115.4,0,3.8.85,5.31,4.94,5.13a214.86,214.86,0,0,1,22,0c4.94.29,6-1.4,6-6.14-.2-38.64-.06-77.27-.2-115.91,0-4,1-5.45,5.22-5.41,23.15.23,46.31,0,69.46.25C202.5,72.77,211.47,79.92,215,96a133.37,133.37,0,0,1-.56,59.92c-3.81,16.07-13,22.78-29.4,22.77-8.33,0-16.67-.28-25,.1-4.7.22-6.16-.94-6.11-5.92.26-29,0-57.95.25-86.93,0-4.75-1.45-5.86-5.89-5.65-7.48.34-15,.32-22.48,0-4.11-.19-4.91,1.31-4.9,5.1.14,33.31.09,66.61.09,99.92,0,3.83.07,7.66,0,11.49-.06,2.15.8,2.95,2.92,2.92,26.31-.38,52.69,1.22,78.93-.81,27.15-2.11,41-14,47-39.65a151,151,0,0,0,.44-67.37C246.55,74.7,237.5,61.29,220,55.18c-8.45-2.94-17.22-3.73-26.08-3.73Q156.41,51.41,118.93,51.43Z"/><path class="cls-1" d="M519.58,89.78c14.36-18.15,40.37-18.6,51-1.53,9.23-12.06,27.45-16,41.27-9.2,7.45,3.7,10.45,10.3,10.94,17.84,1.19,18.62.26,37.29.53,55.94,0,2.77-1.43,2.75-3.46,2.74-10.16-.06-20.33-.18-30.48.07-3.29.08-3.79-1.12-3.76-4,.13-13.66,0-27.31.07-41a21.31,21.31,0,0,0-.82-6.4c-1-3.12-3.26-4-6.15-4s-5.17,1.43-5.73,4.51a33.88,33.88,0,0,0-.43,6c0,13.49-.14,27,.06,40.47.06,3.56-1.05,4.47-4.5,4.39q-14.73-.33-29.48,0c-3.09.06-4-.8-3.91-3.9.17-13.65.08-27.31,0-41a25.42,25.42,0,0,0-.37-5.46c-.74-3.33-2.9-5.14-6.43-5s-5.71,1.89-6.07,5.38a97.42,97.42,0,0,0-.44,10c-.05,12-.1,24,0,36,0,2.93-.58,4.1-3.82,4q-15-.31-30,0c-3.15.06-3.9-1-3.89-4q.18-35,0-69.95c0-3.48,1.21-4.11,4.31-4,9,.17,18,.27,27,0,4-.14,4.95,1.3,4.55,4.86A70.13,70.13,0,0,0,519.58,89.78Z"/><path class="cls-1" d="M477.28,155.55c-13,0-25.78-.08-38.59.07-2.72,0-3.32-1.41-3.91-3.46-1.51-5.27-3.27-10.48-4.65-15.79-.66-2.56-1.83-3.46-4.48-3.41-8.83.14-17.66.18-26.49,0-2.87-.07-4.17.85-4.85,3.57-1.33,5.31-2.91,10.57-4.43,15.85-.44,1.52-.53,3.25-3,3.24-12.45-.08-24.9,0-37.91,0,4-11.33,7.81-22.11,11.59-32.9,7.79-22.26,15.61-44.52,23.28-66.82,1.12-3.27,2.6-4.6,6.33-4.54,15.65.26,31.32.11,47,.08,2,0,3.71-.1,4.63,2.5q17.67,50.33,35.54,100.57A5.29,5.29,0,0,1,477.28,155.55Zm-53.45-48.07L412.45,73.42c-4.11,12.31-7.7,23.08-11.36,34.06Z"/><path class="cls-1" d="M1157.28,87.09c0-13.92.11-26.89-.08-39.85,0-3.31.88-4.24,4.17-4.17,9.82.21,19.65.17,29.47,0,2.88-.05,4,.5,4,3.77q-.18,52.43,0,104.86c0,3-.64,4.08-3.85,4q-13.73-.33-27.46,0c-3.08.08-4.18-.73-3.89-3.85.27-2.8.06-5.65.06-8.44-.94-.54-1.25.23-1.46.73-8,19-40.92,16.34-50.91,0-9.46-15.51-9.74-44.76,2.09-58.45,10.61-12.26,35.38-14.42,46-.1A14.36,14.36,0,0,0,1157.28,87.09Zm-17.67,28.09c.11,3.82-.06,7.68,1.39,11.33s3.92,5.69,7.93,5.73a7.44,7.44,0,0,0,7.62-5.35,35.24,35.24,0,0,0,0-22.55c-1.23-3.72-4.43-5.39-8.24-5.22a7.88,7.88,0,0,0-7.43,5.7C1139.63,108.19,1139.74,111.69,1139.61,115.18Z"/><path class="cls-1" d="M1056.64,144.78c-11.08,12.46-27.63,15.75-41.76,9.34-17.83-8.08-14.61-32.24-3.27-40.49,9-6.53,19.32-7.68,29.92-7.76a124.77,124.77,0,0,1,13,.72c2.67.25,2.84-1,2.19-2.91-1.53-4.45-5.08-6.4-9.41-7.18a54.35,54.35,0,0,0-30.82,3.52c-1.37.56-2.71,1.19-4.91,2.16,0-7.17,0-13.86,0-20.55,0-1.61,1.46-1.65,2.52-1.92,18.87-4.9,37.83-5.7,56.68-.23,12.47,3.62,20,12.07,20.49,25.25.58,16,.28,32,.43,48,0,2.14-.69,2.93-2.87,2.91-9.83-.08-19.66-.11-29.49,0-2.36,0-2.79-1-2.69-3C1056.73,150.37,1056.64,148.09,1056.64,144.78Zm-5.15-23.29c-3.49.05-7,.15-10.23,1.66-3.94,1.83-5,5.09-4.27,9.08.71,3.7,3.43,5,6.88,5.27,6.34.5,11-2.91,12.75-9.37S1058.12,121.33,1051.49,121.49Z"/><path class="cls-1" d="M1286.93,132.59c0,6.22-.09,11.86,0,17.5.06,2.15-1,3-2.76,3.41-17.43,3.6-35,5.42-52.45.83-20-5.26-30.48-23-27.7-45.79,1.84-15.06,9.94-25.08,24.46-29.59,12.44-3.87,25.08-4.92,37.86-1.54,13.43,3.55,21,12.66,24.4,25.7,1.5,5.82,1.77,11.82,2,17.82.15,3.42-.78,4.57-4.37,4.52-14.32-.2-28.64-.12-43,0-1.49,0-3.62-1-4.39,1-.6,1.61.59,3.19,1.52,4.56,2.33,3.4,5.89,4.78,9.72,5.47C1264,138.55,1275.19,137,1286.93,132.59Zm-36.83-23.76c2.5,0,5,0,7.48,0,1.05,0,2.25.32,2.68-1.4,1.09-4.48-3-12.42-7.15-13.56-5.06-1.38-9.81,1.63-11.71,7.43-2.1,6.37-1.29,7.55,5.22,7.56Z"/><path class="cls-1" d="M715.67,133.1c0,5.92-.07,11.56,0,17.2,0,2-.67,2.94-2.69,3.38-16.74,3.68-33.61,5.38-50.49,1.54-20.34-4.64-31.17-19.88-30.24-41.53.94-22.12,13.65-34.87,37.05-37.19,7.14-.71,14.3-1.09,21.39.23,18.07,3.36,28.58,15.93,30.14,35.82,1,13.1,1,13.1-12.05,13.1-11.82,0-23.65.19-35.47-.09-4.59-.11-4.24,2-2.8,4.71,2.72,5.19,7.82,6.55,13,7,10,.84,20,.35,29.44-3.54A17.33,17.33,0,0,1,715.67,133.1ZM686,97.34c-2.93-3.56-6.58-4.29-10.72-2.55-3.76,1.58-7.52,8.68-6.13,12.68s5.17,1,7.74,1.84a8.16,8.16,0,0,0,2,0c2.81-.68,7.36,1.78,9.25-1.18"/><path class="cls-1" d="M906.15,63.31c0,3.66.15,7.33,0,11-.13,2.57.65,3.76,3.33,3.43a18.8,18.8,0,0,1,2.49,0c11.19,0,11.19,0,11.18,11.43,0,11.15,0,11.49-11,11-5.25-.24-6.55,1.4-6.12,6.3s0,10,.12,15c.12,8.63,3.92,12.15,12.25,10.43,4.4-.91,5.07.43,4.75,4.22-.26,3.14,0,6.32,0,9.48,0,8.16,0,8.16-8.22,9.81a83.55,83.55,0,0,1-18.84,1.88c-18.1-.51-27.12-9.66-27.41-27.8-.13-8.15-.2-16.31.06-24.46.11-3.6-.66-4.92-4.59-4.81-8.83.24-8.83,0-8.84-8.73,0-3.5.2-7,0-10.48-.2-2.79,1-3.26,3.45-3.32,9.94-.26,9.94-.34,9.93-10.2,0-7.6,0-7.63,7.35-9.92,9-2.8,18.14-5.41,27.13-8.36,2.56-.85,3.2-.45,3.1,2.17C906,55.32,906.15,59.32,906.15,63.31Z"/><path class="cls-1" d="M969.08,94.42c2.71-4.08,4.52-7.36,6.85-10.21C981,78,987.74,75.32,995.79,76c2.25.19,3.45.85,3.38,3.6-.21,8.31-.18,16.63,0,25,.06,2.93-.89,3-3.49,2.63-13.41-2.2-23.66,6.25-24.07,19.87-.25,8.14-.15,16.3,0,24.45.05,2.77-.31,4.21-3.7,4.13-10.15-.23-20.31-.18-30.46,0-2.94,0-3.59-1-3.58-3.74q.13-35.19,0-70.37c0-2.61.41-3.94,3.49-3.88,9.48.18,19,.16,28.46,0,2.68,0,3.46.87,3.35,3.42C969,85.13,969.08,89.21,969.08,94.42Z"/><path class="cls-1" d="M766.87,94.28c2.47-3.8,4.25-6.81,6.29-9.61a21.4,21.4,0,0,1,11.75-8c9.65-2.71,12-.93,12,8.76,0,6.32-.08,12.65.06,19,.06,2.52-.28,3.42-3.25,2.93-14.29-2.37-24.42,6.31-24.54,20.79-.07,7.82-.13,15.64,0,23.46.05,2.81-.31,4.16-3.7,4.08-10.15-.24-20.31-.16-30.46,0-2.53,0-3.47-.56-3.46-3.29q.15-35.7,0-71.39c0-2.78,1.05-3.3,3.52-3.27,9.49.11,19,.13,28.47,0,2.64,0,3.49.78,3.37,3.39C766.73,85.15,766.87,89.28,766.87,94.28Z"/><path class="cls-1" d="M845.64,116.66c0,11.65-.09,23.31.06,35,0,3-.63,4.07-3.84,4-10.15-.21-20.32-.17-30.47,0-2.74,0-3.73-.61-3.72-3.53q.17-35.46,0-70.93c0-3,1.12-3.53,3.79-3.49,10.16.13,20.32.19,30.47,0,3.3-.07,3.81,1.2,3.78,4.07C845.56,93.35,845.64,105,845.64,116.66Z"/><path class="cls-1" d="M826.51,69.56c-5.16,0-10.34-.15-15.49.06-2.7.11-3.4-.8-3.34-3.38.16-6.66.14-13.33,0-20,0-2.2.66-2.82,2.83-2.8q16,.15,32,0c2.35,0,3.23.63,3.18,3.08q-.21,10,0,20c.05,2.43-.8,3.15-3.17,3.08C837.18,69.46,831.84,69.57,826.51,69.56Z"/></g></g></svg>