<svg xmlns="http://www.w3.org/2000/svg" viewBox="0 0 348.83 53.01"><defs><style>.cls-1{fill:#fff;}</style></defs><title>cheddarflow</title><g id="Capa_2" data-name="Capa 2"><g id="Capa_1-2" data-name="Capa 1"><path class="cls-1" d="M26.47,53c-.29-.26-.58-.49-.84-.74L13,39.73C8.84,35.65,4.74,31.54.57,27.51c-.83-.81-.7-1.25,0-2Q13,13.09,25.29.59c.72-.72,1.11-.84,1.85,0,1.39,1.51,2.87,2.95,4.4,4.32.77.69.82,1.08.05,1.85C25.66,12.64,19.77,18.6,13.88,24.55l-.5.49c-1.44,1.47-1.4,1.43.07,2.87Q22.77,37.06,32,46.24c.34.34.71.62.18,1.14-1.77,1.73-3.5,3.5-5.25,5.26A4.76,4.76,0,0,1,26.47,53Z"/><path class="cls-1" d="M331.18,30.18c-.92,3.66-1.93,7.3-2.73,11-.33,1.5-.89,2.17-2.49,2a25.23,25.23,0,0,0-3.79,0,1.15,1.15,0,0,1-1.29-1q-3.21-11-6.46-22c-.23-.8,0-1.12.86-1.1a39.42,39.42,0,0,0,4.21,0c1.18-.1,1.64.37,1.89,1.47.9,4,1.88,8,2.83,12,.08.35.21.69.44,1.41.85-3.39,1.61-6.4,2.36-9.42.36-1.45.78-2.89,1.08-4.35.16-.78.5-1.12,1.31-1.1q2,.06,3.93,0c.82,0,1.13.33,1.33,1.1,1.06,4.21,2.18,8.4,3.28,12.59.08.31.05.67.52.87,1.14-4.39,2.32-8.74,3.37-13.12.28-1.16.77-1.53,1.91-1.43s2.44.06,3.65.09c1.61,0,1.64.06,1.19,1.57l-5.7,19c-1,3.38-1,3.38-4.51,3.38-3.17,0-3.17,0-4-3.06q-1.41-5-2.83-9.93Z"/><path class="cls-1" d="M163.18,40.78c-3.63,4.39-10.5,2.89-13.22-1.27s-2.84-12.42-.12-16.76,10-5.54,13.15-1.83c.49-.21.28-.64.29-1,0-2.67.07-5.34,0-8-.05-1.35.44-1.73,1.7-1.63a34.18,34.18,0,0,0,3.65,0c.93,0,1.33.27,1.32,1.28q0,15.17,0,30.32c0,.92-.3,1.24-1.22,1.2a32.2,32.2,0,0,0-3.93,0c-1.16.08-1.67-.29-1.49-1.48A4.7,4.7,0,0,0,163.18,40.78Zm0-9.62a11.33,11.33,0,0,0-.55-4,3.69,3.69,0,0,0-3.44-2.82,3.65,3.65,0,0,0-3.75,2.4,10.85,10.85,0,0,0,.15,9.09,3.79,3.79,0,0,0,6.74-.17A9.67,9.67,0,0,0,163.21,31.16Z"/><path class="cls-1" d="M189.82,21.23c0-3.38.06-6.41,0-9.43,0-1.19.37-1.56,1.52-1.48a34.23,34.23,0,0,0,3.79,0c1,0,1.3.32,1.29,1.3,0,4.82,0,9.64,0,14.46,0,5.24,0,10.48,0,15.72,0,1.06-.31,1.4-1.35,1.33a28.63,28.63,0,0,0-3.93,0c-1.1.08-1.45-.33-1.31-1.36,0-.25.13-.57-.18-.76-4.48,4.87-12.92,2.26-14.66-4.88a18.35,18.35,0,0,1,.57-11.82,9.14,9.14,0,0,1,10.57-5.42A7.66,7.66,0,0,1,189.82,21.23Zm-8.68,9.89a9.31,9.31,0,0,0,.84,4.45,3.62,3.62,0,0,0,3.56,2.22,3.39,3.39,0,0,0,3.38-2.25,12,12,0,0,0,.13-8.62,3.48,3.48,0,0,0-3.31-2.58A3.74,3.74,0,0,0,182,26.6,9.17,9.17,0,0,0,181.14,31.12Z"/><path class="cls-1" d="M68.72,26.73c0-2,0-4,0-6a10.39,10.39,0,0,1,8.32-10.25c5.66-1.43,11.57.42,14.2,4.44a10.8,10.8,0,0,1,1.69,5.27c.06.89-.31,1.15-1.09,1.2-1.5.08-3,.15-4.48.29-1,.11-1-.58-1.09-1.23-.43-4.17-4.47-5.59-7.91-4.27a4.77,4.77,0,0,0-3.09,4.75c-.07,3.88-.1,7.76,0,11.64a5,5,0,0,0,5,5.21c3.47.16,5.58-1.42,6-4.65.14-1,.53-1.32,1.53-1.21a39.46,39.46,0,0,0,4.07.19c.86,0,1.13.33,1.08,1.18a10,10,0,0,1-6.26,9.06,14.39,14.39,0,0,1-11.59,0,10,10,0,0,1-6.32-9.15c-.14-2.15,0-4.31,0-6.46Z"/><path class="cls-1" d="M104,21.62a7.38,7.38,0,0,1,7.29-2.81c4.09.54,6.84,3.36,6.93,7.5.12,5.24,0,10.48.07,15.72,0,.9-.34,1.13-1.16,1.1a34.34,34.34,0,0,0-3.93,0c-1.15.08-1.54-.26-1.52-1.46.08-4.07,0-8.14,0-12.21a11.08,11.08,0,0,0-.2-2.23,3.67,3.67,0,0,0-3.61-2.94,3.59,3.59,0,0,0-3.69,3,10.39,10.39,0,0,0-.19,2.08c0,4.12,0,8.24,0,12.36,0,1.13-.33,1.47-1.44,1.4a36.83,36.83,0,0,0-4.07,0c-.76,0-1.09-.17-1.09-1q0-15.37,0-30.74c0-.71.22-1.05.94-1.05,1.55,0,3.09,0,4.64,0,1,0,1,.58,1,1.3C103.94,14.8,104,18,104,21.62Z"/><path class="cls-1" d="M214.87,40.71A10.1,10.1,0,0,1,203,42.16c-2.26-1.44-2.95-3.63-2.83-6.17a6.67,6.67,0,0,1,4.2-6.12,15,15,0,0,1,6.45-1,26.39,26.39,0,0,1,2.67,0c1.2.13,1.56-.31,1.41-1.48a3.15,3.15,0,0,0-2.24-2.9c-2.06-.57-4.15-.09-4.92,1.33a1.4,1.4,0,0,1-1.77.83,34.21,34.21,0,0,0-4-.54c-1.25-.09-1.31-.74-1-1.67a6.77,6.77,0,0,1,3.32-4,13.27,13.27,0,0,1,13.74.17,6.51,6.51,0,0,1,3.43,5.76c.06,5.24,0,10.48.06,15.72,0,.8-.31,1-1.08,1a34.34,34.34,0,0,0-3.93,0c-1.18.08-1.82-.2-1.58-1.51A6.26,6.26,0,0,0,214.87,40.71Zm0-6.58c-.18-.4.4-1.25-.52-1.28a15.23,15.23,0,0,0-5.82.44,2.53,2.53,0,0,0-1.76,2.45A2.38,2.38,0,0,0,208,38.06,4.62,4.62,0,0,0,214.87,34.13Z"/><path class="cls-1" d="M253.81,26.7c0-5,0-9.92,0-14.88,0-1.18.37-1.51,1.52-1.51q9.82.07,19.66,0c1.11,0,1.66.25,1.54,1.48a14.55,14.55,0,0,0,0,2.8c.12,1.22-.42,1.5-1.54,1.48-4.45-.05-8.89,0-13.34,0-1,0-1.28.22-1.23,1.22.08,1.82.06,3.65,0,5.47,0,.81.22,1,1,1,2.81,0,5.61,0,8.42,0,1.09,0,1.55.3,1.47,1.43a26.55,26.55,0,0,0,0,3.09c0,.85-.32,1.14-1.16,1.13-2.86,0-5.71,0-8.57,0-.92,0-1.19.25-1.17,1.18.05,3.69,0,7.39.05,11.08,0,1.28-.39,1.64-1.6,1.55a26.63,26.63,0,0,0-3.79,0c-1,.07-1.26-.33-1.26-1.28C253.83,36.8,253.81,31.75,253.81,26.7Z"/><path class="cls-1" d="M136.5,33.19c-2.15,0-4.31,0-6.46,0-.89,0-1,.29-.83,1a4.29,4.29,0,0,0,3.19,3.39c2.2.54,4.41.39,6-1.34,1.12-1.23,1.75-1.06,2.65.07a10.71,10.71,0,0,0,1.8,1.76c.94.74.74,1.35,0,2-3.93,3.59-8.55,4.15-13.36,2.55-4.47-1.49-6.49-5.15-7-9.64-.44-3.74-.14-7.4,2.33-10.52,2.77-3.49,6.51-4.39,10.69-3.7,4,.65,6.57,3.18,7.93,6.91a17.43,17.43,0,0,1,.92,6.22c0,.9-.33,1.25-1.24,1.24C140.9,33.17,138.7,33.19,136.5,33.19Zm-3.25-4.41c1.16,0,2.33,0,3.49,0,.58,0,.78-.08.67-.78a4.18,4.18,0,0,0-4-3.7,4,4,0,0,0-4.19,3.33c-.22.95.05,1.23,1,1.16S132.22,28.78,133.25,28.78Z"/><path class="cls-1" d="M42.09,16.74c-.28.31-.51.6-.77.86-2.67,2.68-5.33,5.39-8,8-.62.61-.6.93,0,1.53,2.66,2.57,5.23,5.23,7.9,7.78.79.75.74,1.16,0,1.86-1.81,1.76-3.58,3.57-5.31,5.4-.55.58-.89.58-1.44,0q-7.62-7.57-15.28-15.1c-.63-.62-.41-1,.08-1.46Q26.12,18.75,33,11.82c2.05-2.07,2.05-2.05,4.09,0,1.44,1.41,2.9,2.8,4.34,4.2C41.64,16.2,41.84,16.45,42.09,16.74Z"/><path class="cls-1" d="M290.42,31c0-3.94.8-7.6,4.18-10.07a11.49,11.49,0,0,1,11.7-1.29c4.05,1.65,5.84,5.06,6.34,9.2a14.9,14.9,0,0,1-1.55,9.38c-2.27,4-6.61,5.92-11.51,5.11a10.33,10.33,0,0,1-8.82-8.57A17.6,17.6,0,0,1,290.42,31Zm15.79-.17c-.09-.74-.13-1.73-.32-2.69a4.53,4.53,0,0,0-3.83-3.78,3.86,3.86,0,0,0-4.17,2.2,11,11,0,0,0-.06,8.86,3.8,3.8,0,0,0,3.8,2.37,4,4,0,0,0,3.75-2.48A11.69,11.69,0,0,0,306.21,30.82Z"/><path class="cls-1" d="M279.55,26.62c0-4.95,0-9.91,0-14.87,0-1.14.39-1.48,1.47-1.43,1.3.07,2.62,0,3.93,0,.85,0,1.29.23,1.29,1.18q0,15.23,0,30.45c0,.94-.38,1.21-1.27,1.17a39.47,39.47,0,0,0-4.07,0c-1.07.07-1.35-.32-1.34-1.35C279.57,36.73,279.55,31.67,279.55,26.62Z"/><path class="cls-1" d="M232.85,21.62a6.3,6.3,0,0,1,6.38-2.74c1.63.23,1.92.61,1.62,2.17a22.18,22.18,0,0,0-.59,3.3c0,1.36-.65,1.51-1.78,1.26a5.34,5.34,0,0,0-3.3.36,4.13,4.13,0,0,0-2.5,4.17c0,3.84,0,7.67,0,11.51,0,1.17-.31,1.58-1.49,1.49a26.63,26.63,0,0,0-3.79,0c-1.05.08-1.35-.28-1.34-1.33,0-6.55,0-13.1,0-19.65,0-3.11,0-3.11,3.09-3.11h.85C232.5,19,232.5,19,232.85,21.62Z"/><path class="cls-1" d="M37.78,26.06c2.41-2.37,4.75-4.67,7.06-7,.43-.43.7-.44,1.13,0,2.3,2.33,4.63,4.63,7,7-2.37,2.36-4.7,4.67-7,7-.43.43-.7.43-1.13,0C42.53,30.74,40.19,28.45,37.78,26.06Z"/></g></g></svg>