<svg xmlns="http://www.w3.org/2000/svg" viewBox="0 0 268.39 54.25"><defs><style>.cls-1{fill:#fff;}</style></defs><title>gbm</title><g id="Capa_2" data-name="Capa 2"><g id="Capa_1-2" data-name="Capa 1"><path class="cls-1" d="M212.7,1.06V53.21H200.81v-34l-.34-.12c-.24.46-.49.91-.71,1.38q-7.33,15.69-14.64,31.39a2.14,2.14,0,0,1-2.33,1.52c-3.08-.1-6.17-.09-9.25,0a2,2,0,0,1-2.23-1.43q-7-15.58-14.07-31.13a3.65,3.65,0,0,0-1.06-1.44V53.19H144.31V1.08c.49,0,1-.09,1.59-.09,4.34,0,8.68,0,13,0a2.06,2.06,0,0,1,2.2,1.48Q169.49,21.17,178,39.86c.08.19.19.37.43.84.35-.69.63-1.2.88-1.72Q187.72,20.7,196.12,2.4A2,2,0,0,1,198.32,1c4.29.07,8.58,0,12.87,0C211.65,1,212.11,1,212.7,1.06Z"/><path class="cls-1" d="M73.11,1.11c.42,0,.77-.12,1.13-.12q20.15,0,40.3.1a19.22,19.22,0,0,1,8.74,2.2A9.86,9.86,0,0,1,129,10.71c.75,4.53.59,8.94-3.09,12.35A30.18,30.18,0,0,1,122,25.69a1.06,1.06,0,0,0,.42.19c8.37,1.86,11.48,7.35,10.38,15.36-1,6.93-5.25,10.73-12.72,11.65a54.54,54.54,0,0,1-6.26.42c-13,0-26,0-39.05,0-.51,0-1,0-1.63-.07ZM85.47,43.28a7.32,7.32,0,0,0,.74.08c8.67,0,17.34,0,26,0a15.69,15.69,0,0,0,4.57-.89c2.2-.73,3.07-2.48,3.06-4.76s-.87-4.17-3.11-4.91a17,17,0,0,0-5-.83c-8.2-.08-16.4,0-24.6,0H85.47Zm0-21.18c.45,0,.71.07,1,.07,7.63,0,15.26,0,22.89,0a7.67,7.67,0,0,0,2.93-.35,6.89,6.89,0,0,0,3.11-2.12,5.58,5.58,0,0,0-3.8-8.57,15.36,15.36,0,0,0-2.79-.29c-7.21,0-14.42,0-21.64,0-.55,0-1.1,0-1.67.08Z"/><path class="cls-1" d="M59.81,15.35c-4.67,0-9.22,0-13.76,0a1.33,1.33,0,0,1-.84-.34c-3-2.9-6.84-3.89-10.84-4.38A27.83,27.83,0,0,0,22.15,11.8a12.26,12.26,0,0,0-8.81,10,28.45,28.45,0,0,0,.16,11.37A11.58,11.58,0,0,0,20.86,42a26.71,26.71,0,0,0,20.33-.06,11.5,11.5,0,0,0,7.27-9.18H29V22.77h1.64c9.78,0,19.55,0,29.33,0,1.4,0,1.79.44,1.82,1.77.1,4.31,0,8.58-1.39,12.72a21.79,21.79,0,0,1-13.68,14,45.27,45.27,0,0,1-30.88.7C7.33,49.07,2.24,43.12.65,34.23A38.11,38.11,0,0,1,.6,20.51C2.31,11.2,8,5.33,16.78,2.46a45.59,45.59,0,0,1,29.57,0c5.57,1.91,10.07,5.27,12.72,10.74.23.47.43.95.63,1.43A3.85,3.85,0,0,1,59.81,15.35Z"/><path class="cls-1" d="M249.94,47.54h-3.67V28.9H228c-.22-.25-.29-.28-.29-.33-.41-3.37-.41-3.37,3-3.37h15.52V6.81h3.71V25.14h18.47v3.68c-.53,0-1.08.08-1.63.08H252c-2.07,0-2.07,0-2.07,2q0,7.38,0,14.75Z"/></g></g></svg>