<svg xmlns="http://www.w3.org/2000/svg" viewBox="0 0 4158.84 600.72"><defs><style>.cls-1{fill:#fff;}</style></defs><title>interactivebrokers</title><g id="Capa_2" data-name="Capa 2"><g id="Capa_1-2" data-name="Capa 1"><path class="cls-1" d="M261,.34c-3.54,8.13-7.06,16.29-10.63,24.41Q230,71,209.58,117.19c-10.67,24.12-21.42,48.19-32.07,72.32-13.4,30.34-26.68,60.73-40.1,91.07-9.65,21.84-19.49,43.6-29.16,65.43-7,15.77-13.92,31.56-20.6,47.46a6.86,6.86,0,0,0,1.08,5.92Q135,450.72,181.49,501.81q38.88,42.85,77.72,85.74a42.84,42.84,0,0,1,2.54,3.57H.07V586Q.07,446.28,0,306.57a13.12,13.12,0,0,1,3.64-9.31Q51,242.66,98.09,187.83q48.36-56,96.77-112,31.89-37,63.63-74.12A22,22,0,0,1,260.3,0Z"/><path class="cls-1" d="M2682.32,269.49h5.2c45.48,0,91-.09,136.44,0,18.68.05,36.9,2.88,53.49,12.07,23.91,13.25,36.22,34.16,38.34,61,1.5,19.08-2.09,37.11-13.95,52.82-6.34,8.4-14.52,14.59-23.56,19.75l-4.91,2.81,12.08,5.38c35.74,15.88,48.2,44.16,45.83,79.2-3.08,45.57-33.51,77.67-79.94,85.85a194.84,194.84,0,0,1-32.25,2.93c-44.32.33-88.63.15-133,.16h-3.82ZM2725,553.84a6.81,6.81,0,0,0,1.62.49c35.47-.25,70.95-.14,106.41-1a56.44,56.44,0,0,0,36.17-13.88c16.69-14.49,20.85-33.38,18-54.33-2.48-18.43-13.3-30.77-30.24-37.08a98.07,98.07,0,0,0-28.58-6.25c-21.23-1.12-42.54-.84-63.82-1-13.09-.12-26.19,0-39.59,0Zm.06-248.17v99.89c14.51,0,28.65.14,42.79,0,18.81-.22,37.68.15,56.41-1.23,31-2.28,47.36-19.46,48.4-49,.86-24.6-12.64-42.09-36.79-46.58a176.18,176.18,0,0,0-29.25-2.93c-25.32-.4-50.65-.14-76-.14Z"/><path class="cls-1" d="M1028.07,489.54c-.66,32.3,18.21,55.46,49.28,58.88,15.39,1.69,30.49.58,43.08-9.73,4.67-3.82,8.06-9.18,12.16-13.72,1.21-1.33,2.84-3.24,4.29-3.26,20.15-.21,40.3-.14,61.46-.14-1.06,4.2-1.6,8.09-3,11.63-9.28,23.43-25.6,40.74-47.62,52.46-24.15,12.84-50.24,15.55-77.11,13.08-26.49-2.42-49.86-12.38-70.29-29.27-17.74-14.66-27.35-34.06-31.7-56.22-6.39-32.59-6.28-65.11,5.56-96.45,15.42-40.81,46.26-63.05,88.92-69.21a143.31,143.31,0,0,1,60.82,4.17c32.26,9.34,54,30.35,67.16,60.8,10.57,24.52,10.69,50.43,10.06,77Zm108.1-41.42c-.33-31.48-23.82-51.35-55.43-50.55-28.56.73-53,25-50.79,50.55Z"/><path class="cls-1" d="M2640.05,489.57H2467c-.49,34,19.44,55.52,49.37,58.86,15,1.67,29.87.62,42.28-9.2,5.1-4,8.77-9.85,13.22-14.75,1.08-1.2,2.64-2.78,4-2.79,20.15-.18,40.3-.12,61.78-.12-1.91,6-3,11.69-5.44,16.71-12.69,25.8-32.35,44.35-59.74,53.49-36,12-71.7,11.09-106.43-5.08-35.48-16.52-55.33-44.48-60.31-83.24-3.5-27.22-3.32-54.27,5.26-80.53,14.55-44.55,46.17-69.05,92.05-75.39,23.75-3.29,47.23-1.23,69.71,7.68,33,13.07,52.36,38.25,62.16,71.47C2640.9,447.06,2640.45,468.05,2640.05,489.57Zm-171.83-41.49h107c0-27.57-20.06-48.39-48.18-50.38C2494.5,395.38,2472.67,413.86,2468.22,448.08Z"/><path class="cls-1" d="M1403.61,429.48c1.59-37,19.94-67.1,58.28-76.94,37.86-9.72,75.14-7.93,111.19,8.39,20.76,9.4,30.49,26.34,32.8,48.21a187.36,187.36,0,0,1,.8,19c.16,43,.18,86,.43,129a46.51,46.51,0,0,0,2,13.75c1,3.11,3.16,6.84,5.86,8.21,5.76,2.93,5.3,7.19,4.68,12.52h-15.1c-16.16,0-32.32-.09-48.48.07-3,0-4.61-.85-5.22-3.77-1.59-7.62-3.25-15.23-5-23.5-1.18,1.11-2.52,2.35-3.83,3.61-16.62,15.88-35.36,27.74-58.79,30.19-25.49,2.65-49.19-1.42-68.63-19.82-11.3-10.69-17-24.24-18.39-39.4-1.87-20.14.2-39.65,12.78-56.6,11.41-15.38,27.4-23.81,45.54-27.59,18.86-3.92,38.08-6.06,57.07-9.36a117.83,117.83,0,0,0,21.11-5.57c7.58-2.85,12.12-8.68,12-17.24-.09-9.12-2.87-17.12-12-20.66-16.69-6.49-33.84-7.29-50.72-.93-11.34,4.26-15.52,14.46-18,25.35-.6,2.7-1.58,3.58-4.22,3.57-18-.08-36-.05-54-.07A16.94,16.94,0,0,1,1403.61,429.48Zm140.85,45.85c-13.76,8.66-28.81,9.85-43.33,13a189.11,189.11,0,0,0-23.53,6.26c-10.82,3.85-17.41,11.69-19.35,23.31-3.42,20.58,8.88,35.36,29.73,35.69a65.61,65.61,0,0,0,32.51-8c8.8-4.7,15.56-11.24,19.29-20.68C1546,509.09,1544.43,492.65,1544.46,475.33Z"/><path class="cls-1" d="M568,353.1h59.77v34.59c2.42-3.34,4-5.39,5.45-7.53,13.91-20.59,33.25-31.52,58.06-33,18.39-1.08,36.14,1.1,53,9.18,21.08,10.1,32.84,27.05,36.55,49.71a157.74,157.74,0,0,1,2.05,24.83c.18,51.33.09,102.66.09,154v6.29H719v-6q0-68.74,0-137.49a115,115,0,0,0-1-16.91c-3.11-20.57-14.91-31-35.64-32.05-26.9-1.32-45.78,13.62-50.22,40.34A160.29,160.29,0,0,0,630,464.38c-.2,40.16-.09,80.32-.09,120.49v6.3H568Z"/><path class="cls-1" d="M1867.4,438h-62.9c-3-7.47-5.46-14.68-8.79-21.45s-9.36-11.18-16.39-13.93c-24.1-9.46-49,.82-59.44,24.44-5.76,13.05-7.35,26.94-7.73,40.95-.5,18.2.09,36.37,7.83,53.37,8.7,19.14,25.75,28.41,46.66,25.68,20.73-2.72,30.65-12.58,35.06-34.87.45-2.28.83-4.58,1.31-7.21h63.08c0,9.6-2.47,18.52-5.77,27.2-16,42-51.26,66.61-96.3,67.36-19.14.32-37.9-1.54-55.82-8.78-25.64-10.36-41.34-30.16-51.11-55.11-10.62-27.13-11.91-55.4-8.73-84.06,2-17.85,6.37-35,15-50.87,15.33-28.19,38.72-45.57,70.39-51.41a150.05,150.05,0,0,1,72.52,4.26c31.93,9.89,50.69,31.7,57.53,64.1C1865.18,424.29,1866.16,431,1867.4,438Z"/><path class="cls-1" d="M2395.78,352.53c-28.86,80-57.48,159.4-86.2,239-21.1,0-42.08.07-63-.15-1.3,0-3.23-2-3.76-3.39q-14.05-38.38-27.8-76.88-27.15-75.78-54.24-151.58c-.76-2.14-1.41-4.32-2.28-7h46.61c6.33,0,12.67.18,19-.07,3.27-.12,4.48,1,5.37,4.18q18.57,66.5,37.44,132.89c3.51,12.41,7,24.83,11.62,37.32,2-6.86,4.13-13.71,6.11-20.59q21.32-74,42.46-148.07c1.29-4.55,3.15-5.86,7.81-5.78,18.49.3,37,.12,55.47.12Z"/><path class="cls-1" d="M3611.09,486.49c1,23.08,5,44.47,20.3,61.92,12.54,14.34,29.5,18.06,47.6,17.4,29.65-1.08,49.63-16.06,59.7-44,.55-1.54,2.3-3.74,3.53-3.77,11.79-.28,23.6-.17,36.26-.17-.84,3.83-1.24,7.1-2.28,10.16-15.4,45-47.61,68.63-92.9,71.46-23.18,1.45-45.13-2.31-64.85-15.39-25.37-16.83-40.44-40.6-46.13-70.21-5.84-30.44-5.33-60.82,5.64-90.09,14.18-37.8,39.78-63.9,80.86-70.55,40.59-6.57,75.69,4.75,101.85,37.69,12.35,15.56,17,34.51,19.1,53.93,1.43,13.55,1.76,27.21,2.62,41.58Zm.93-31.3h129.27c-2.89-25-7.84-48.9-32.06-61.65-22.24-11.72-45.47-11.74-66.87,2.61C3621.76,410,3613.2,430.66,3612,455.19Z"/><path class="cls-1" d="M3439.23,472.05c-10.62,10.28-21,20.16-31.06,30.27-1.14,1.14-1.22,3.67-1.23,5.55q-.11,38.73-.05,77.48v5.82h-37.66V269.74h37.52V456.53c7.39-7.23,13.74-13.41,20.05-19.63q39.32-38.76,78.68-77.49a9,9,0,0,1,5.41-2.7c15.32-.21,30.64-.12,47.49-.12L3468.19,444l95,147.21c-2,.14-3.34.33-4.72.33-13.66,0-27.33-.09-41,.1-3.24,0-5-1-6.71-3.76q-33.66-54.87-67.57-109.6C3442,476.42,3440.85,474.61,3439.23,472.05Z"/><path class="cls-1" d="M3106.07,478.35c1.6-29.94,6.62-58.5,23.71-83.74,18.38-27.14,44.08-41.69,76.71-44.21,23.66-1.84,46.13,2,66.71,14.29,25.2,15.12,41,37.17,46.88,65.91,7.5,36.72,5.67,72.82-9.1,107.69-16.74,39.55-47.24,59.14-89.63,61.25-21.12,1.05-41.64-1.21-60.42-11.78-26.6-15-42-38.47-48.77-67.55C3109,506.53,3108,492.32,3106.07,478.35ZM3284,469.7c-1.35-10.87-2-21.87-4.21-32.57-3.66-18-11.64-33.64-27.83-43.75-12.48-7.79-26.35-9.61-40.75-8.9-21.43,1-38.17,10.15-48.19,29.43-18.49,35.55-20.16,72.61-7.41,110.19,5.85,17.24,16.42,31.14,34.51,37.7,11.86,4.3,24.12,4.94,36.44,3.46,21.5-2.57,36.3-14,44.67-34.2C3279.34,511.39,3283.24,491,3284,469.7Z"/><path class="cls-1" d="M907.94,399v6.33q0,60,0,119.94a76.53,76.53,0,0,0,.87,11.42c1,6.83,3,9,9.95,9.69,7.43.71,14.94.71,22.41,1,1.64.07,3.28,0,5.25,0v46c-3.21.21-6.46.5-9.72.61-17.45.6-34.94,2.11-52.28-1.33-26.65-5.29-37.84-18.12-38.11-45.39-.4-39-.13-78.11-.14-117.16V399.26h-33V354.75h33V288.61h61.59v65.78h38.59V399Z"/><path class="cls-1" d="M2020.81,547.41v46c-4.72.3-9.46.73-14.2.86-17.46.48-34.95,1.7-52.2-2.56-22.32-5.5-33.36-18.57-33.5-41.53-.29-48.16-.13-96.32-.16-144.47v-6.45h-33.13V354.72h33v-66.1h61.47v65.86h38.52v44.61h-38.36v6q0,60,0,120a87.76,87.76,0,0,0,.79,11.45c.85,6.51,3.31,9.26,9.87,9.88,7.61.73,15.28.74,22.92,1C2017.31,547.46,2018.79,547.41,2020.81,547.41Z"/><path class="cls-1" d="M4150.7,424h-36.45c-.75-3-1.38-5.92-2.22-8.77-3.42-11.7-10.37-20.48-21.93-24.86-19.79-7.5-40-8.28-60.14-1.78-14.59,4.7-22,16.66-20.09,31.11,1.22,9.36,7,15.51,14.79,20.17,11.63,7,24.9,9.06,37.7,12.59,20.17,5.56,40.56,10.5,60.33,17.27,28.54,9.77,38.38,32.75,35.74,60.31-3.22,33.69-26.39,58.8-60.38,66.53a166.83,166.83,0,0,1-74.79-.1c-33.41-7.6-51.15-30.22-58.36-62.44-1.12-5-1.51-10.14-2.3-15.69h37.93c.58,3.43,1.07,6.86,1.75,10.25,3.48,17.39,13.65,29.1,30.57,34.22,22.53,6.82,45,6.71,66.71-3.36,12.51-5.79,19.9-15.31,20.31-29.49.36-12.58-4.91-22.08-16.78-26.17-15.82-5.46-32.14-9.5-48.25-14.15-15-4.34-30.22-8-44.87-13.28a83.39,83.39,0,0,1-22.76-13.08c-19.74-15.49-21.62-40.56-13.31-63.9,7.66-21.55,23.74-35.37,45-42.27,31.83-10.34,63.81-9.93,94.19,5.12,22.07,10.94,34.28,29.85,37.66,54.31a31.18,31.18,0,0,1,.18,4C4150.9,421.47,4150.79,422.46,4150.7,424Z"/><path class="cls-1" d="M508.72,268.7V591.14H442.25V268.7Z"/><path class="cls-1" d="M1237.43,591.21V352.84h59.39v39.6c12.14-17.29,23.32-35,44.8-41.73a79.45,79.45,0,0,1,34.07-3.25v63.12c-9.36,0-18.53-.65-27.58.12-23.33,2-41.15,13.52-45.44,38.58a167,167,0,0,0-2.53,26.76c-.27,36.31-.11,72.63-.11,108.94v6.23Z"/><path class="cls-1" d="M148,372.15a78,78,0,0,1,78.12-77.88c43.15,0,78.54,35,78.59,77.64.05,43.65-34.74,79.35-78.11,79.23C181.2,451,147.45,414.69,148,372.15Z"/><path class="cls-1" d="M2125.25,591.31h-62.66V352.82h62.66Z"/><path class="cls-1" d="M2978,356.79h36.86v38.83c18.74-27.14,39.3-49.42,76.42-42.88V394c-8.57,0-17-1.13-25.09.2-25.82,4.28-44.63,24.34-48.26,50.38a102.94,102.94,0,0,0-1,13.92q-.1,63.23,0,126.46v6.27H2978Z"/><path class="cls-1" d="M3867.86,591.29h-39V357h36.7v39c18.83-27.43,39.52-49.76,76.65-43.2v40.51c-6.12,0-12.05-.19-18,0-33.46,1.26-51.1,26.65-55.33,51a80.83,80.83,0,0,0-1,13.91q-.12,63.48,0,127Z"/><path class="cls-1" d="M2062.45,323.49V266.81h62.72v56.68Z"/></g></g></svg>