<svg xmlns="http://www.w3.org/2000/svg" viewBox="0 0 320.17 68.85"><defs><style>.cls-1{fill:#bfbfbf;}.cls-2{fill:#f1f1f2;}.cls-3{fill:#f2f2f3;}.cls-4{fill:#eeeff0;}.cls-5{fill:#d8d8d8;}.cls-6{fill:#fff;}.cls-7{fill:#ececed;}.cls-8{fill:#f3f3f4;}.cls-9{fill:#eff0f1;}</style></defs><title>symbolik_1</title><g id="Capa_2" data-name="Capa 2"><g id="Capa_1-2" data-name="Capa 1"><path class="cls-1" d="M25.1,23q5.24,9,10.46,18.1c.86,1.51,1.8,3,1.41,4.94H13.32c-.49,0-1,.08-1.46.12l0,0C9.5,41.57,6.76,37.25,4.25,32.8,3.16,30.84,2,28.92.91,27a5,5,0,0,1-.78-3.86q11.52,0,23.05,0c.63,0,1.26-.08,1.89-.12Z"/><path class="cls-2" d="M158.05,34.51c0,4.07,0,8.13,0,12.2,0,1.19-.35,1.77-1.6,1.59a4,4,0,0,0-1,0c-1.35.16-1.82-.42-1.81-1.77.06-4.9,0-9.8,0-14.7a8.61,8.61,0,0,0,0-.88c0-.52.23-1.25-.33-1.48s-1,.51-1.31.92c-2.43,3-4.84,6-7.19,9.07-.82,1.06-1.37,1.09-2.2,0-2.3-3-4.67-5.91-7-8.84-.39-.48-.71-1.33-1.4-1.11s-.45,1.19-.45,1.82c0,5.05-.06,10.1,0,15.15,0,1.39-.36,2-1.81,1.81a7.27,7.27,0,0,0-1.32,0c-.94.06-1.31-.38-1.31-1.31q0-12.49,0-25c0-.86.3-1.2,1.19-1.28a4.09,4.09,0,0,1,4.12,1.78c2.49,3.44,5.23,6.7,7.86,10.05,1.08,1.38,1.31,1.4,2.37.06q4.35-5.45,8.66-10.91c.64-.8,3.35-1.39,4.16-.86.55.36.38,1,.38,1.48Q158.06,28.41,158.05,34.51Z"/><path class="cls-3" d="M181,20.73c2.15.19,4.77-.39,7.29.61a7.06,7.06,0,0,1,3,11.32c-.52.62-.64,1,.07,1.51a7.26,7.26,0,0,1,2.8,8.07,8.27,8.27,0,0,1-7.74,6c-3.82.17-7.65,0-11.47.07-1,0-1.09-.59-1.08-1.35,0-3,0-6,0-9V22.68c0-1.95,0-1.95,1.88-1.95C177.37,20.72,179,20.73,181,20.73ZM178.17,39.9c0,1.13,0,2.25,0,3.37,0,.84.3,1.26,1.21,1.24,2.15,0,4.3,0,6.44,0A4.37,4.37,0,0,0,190.08,40a4.24,4.24,0,0,0-4.23-4.47c-2.15-.07-4.3,0-6.45,0-.87,0-1.26.32-1.24,1.19C178.19,37.76,178.17,38.83,178.17,39.9Zm4-8c1.08,0,2.16.07,3.23,0a3.64,3.64,0,0,0,3.33-3.79,3.48,3.48,0,0,0-3.27-3.5c-1.31-.11-2.64-.09-4-.07-3.84,0-3.35-.55-3.37,3.32C178.14,31.91,178.16,31.91,182.21,31.86Z"/><path class="cls-3" d="M235.27,34.63c0,8-6.35,14-14.64,14s-14.42-6.17-14.36-14.23,6.33-14.12,15-14C228.82,20.38,235.59,26.61,235.27,34.63ZM221,44.64A10,10,0,0,0,230.9,34a10,10,0,0,0-10.4-9.7A10.18,10.18,0,1,0,221,44.64Z"/><path class="cls-4" d="M297.82,34.34c0-4.07,0-8.13,0-12.2,0-1.09.33-1.47,1.43-1.44,3.38.09,2.89-.33,2.92,2.89,0,2.7,0,5.39,0,8.09,0,.46-.17,1.06.39,1.31s.86-.3,1.17-.64q4.95-5.33,9.87-10.67c.73-.79,4.5-1.43,5.36-.85s.14,1-.19,1.31c-1.62,1.76-3.29,3.49-4.92,5.25q-3.06,3.27-6.08,6.57c-.26.27-.69.54-.47,1s.72.3,1.06.24c2.55-.49,4,.76,5.28,2.85,1.85,3,4,5.76,6.06,8.64.27.39.7.77.36,1.31s-.8.24-1.22.32c-2.51.5-4-.62-5.32-2.74-2.05-3.33-4.4-6.46-6.58-9.7-.36-.54-.61-.39-.89-.09q-1.85,2-3.63,4a2.05,2.05,0,0,0-.26,1.41c0,1.82,0,3.63,0,5.44,0,1.15-.3,1.72-1.59,1.67-2.73-.11-2.77.51-2.76-2.79C297.83,41.79,297.82,38.07,297.82,34.34Z"/><path class="cls-5" d="M25.07,23c-.63,0-1.26.12-1.89.12q-11.52,0-23,0a5.92,5.92,0,0,1,.94-4.33c2.66-4.61,5.3-9.23,8-13.82.88-1.5,1.75-3.08,3.6-3.66Z"/><path class="cls-6" d="M25.07,23,12.67,1.3C14,.08,15.74.08,17.37.05,22.21,0,27.06,0,31.91,0c3.59,0,5,2.5,3.22,5.61-3.32,5.8-6.68,11.57-10,17.36Z"/><path class="cls-6" d="M11.82,46.13l0,0c.43.65.89,1.29,1.28,2q5.68,9.73,11.34,19.46a5.7,5.7,0,0,1-3.81,1.23c-5.38,0-10.76.06-16.14,0-2.95,0-4.36-2.51-2.89-5.09C5,57.84,8.42,52,11.82,46.13Z"/><path class="cls-5" d="M24.48,67.59q-5.67-9.72-11.34-19.46c-.39-.67-.85-1.31-1.28-2,.49,0,1-.12,1.46-.12H37a4.43,4.43,0,0,1-.66,3.22q-4.52,8-9.15,16A5.17,5.17,0,0,1,24.48,67.59Z"/><path class="cls-2" d="M74.2,20.3a12,12,0,0,1,7.35,2.51c.86.66,1,1.2.15,2-1.56,1.57-1.49,1.53-3.56.46a7,7,0,0,0-6.36-.42,3.1,3.1,0,0,0-2.09,3.21c.16,1.79,1.44,2.62,2.89,3.16,2.06.76,4.19,1.3,6.25,2.06,4,1.46,5.57,3.8,5.35,7.58a7.72,7.72,0,0,1-6.3,7.33c-4.35,1-8.47.37-12-2.57-.65-.54-1.57-1.09-.55-2.11,1.65-1.64,1.86-2,3.13-.94a8.55,8.55,0,0,0,8.82,1.48,3.6,3.6,0,0,0,2.53-3.45,3.41,3.41,0,0,0-2.28-3.39c-2.39-1.17-5-1.46-7.48-2.53-3.34-1.48-5-4-4.73-7.61a7.39,7.39,0,0,1,6-6.39A11.4,11.4,0,0,1,74.2,20.3Z"/><path class="cls-7" d="M248.62,34.39c0-4,0-7.94,0-11.91,0-1.31.31-1.85,1.73-1.79,2.89.13,2.73-.37,2.73,2.67q0,9.48,0,19c0,1.84.09,1.93,1.88,1.94,3.29,0,6.57,0,9.86,0,1.36,0,1.71.54,1.6,1.76s.3,2.34-1.56,2.32c-4.9-.06-9.8,0-14.7,0-1.2,0-1.54-.49-1.53-1.58C248.64,42.62,248.62,38.5,248.62,34.39Z"/><path class="cls-8" d="M282.92,34.42v11.9c0,1.85-.11,2-1.88,2-2.52,0-2.52,0-2.52-2.59V22.79c0-2.06,0-2.06,2-2.06,2.41,0,2.41,0,2.41,2.38Z"/><path class="cls-4" d="M103.25,43c1.11-4.36-1.73-7.44-3.57-10.81s-3.76-6.62-5.63-9.94c-.7-1.26-.54-1.5.92-1.53a11.83,11.83,0,0,0,1.46,0c1.24-.2,1.86.43,2.41,1.44,1.87,3.43,3.81,6.82,5.76,10.2.22.38.33,1,.94,1s.5-.67.71-1c2-3.57,4-7.13,6-10.72.55-1,1.42-.93,2.28-.85s2-.5,2.45.35-.5,1.59-.93,2.33c-1.64,2.89-3.43,5.7-4.89,8.67a3,3,0,0,1-3.3,1.9c-2.29-.13-2.37,0-1.2,1.95a6.92,6.92,0,0,1,1,4c-.07,2.25-.05,4.51,0,6.76,0,1.12-.41,1.57-1.56,1.58-2.87,0-2.87.07-2.87-2.81Zm3.89-.54c-.07-2.37.27-4.73-1.12-7-2.58-4.14-5.07-8.35-7.31-12.67-.88-1.68-2-1.9-3.52-1.79-.9.07-1.13.3-.63,1.17,2.41,4.18,4.72,8.43,7.19,12.58a10.94,10.94,0,0,1,1.89,7c-.17,1.5,0,3,0,4.56s.85,1.43,1.85,1.46,1.75-.1,1.7-1.39S107.14,43.78,107.14,42.46Z"/><path class="cls-9" d="M107.14,42.46c0,1.32,0,2.65,0,4s-.71,1.42-1.7,1.39-1.9-.08-1.85-1.46-.13-3.06,0-4.56a10.94,10.94,0,0,0-1.89-7c-2.47-4.15-4.78-8.4-7.19-12.58-.5-.87-.27-1.1.63-1.17,1.55-.11,2.64.11,3.52,1.79,2.24,4.32,4.73,8.53,7.31,12.67C107.41,37.73,107.07,40.09,107.14,42.46Z"/></g></g></svg>